<svg xmlns="http://www.w3.org/2000/svg" xmlns:xlink="http://www.w3.org/1999/xlink" version="1.1" enable-background="new 0 0 48 48" xml:space="preserve" width="32" height="32"><rect id="backgroundrect" width="100%" height="100%" x="0" y="0" fill="none" stroke="none" class="" style=""/><g class="currentLayer" style=""><title>Layer 1</title><path d="M24.144726669192313,15.660291681587694 c0.04714516341686261,0.016469208002090535 0.09667742371559207,0.02913782954216005 0.14382258713245394,0.04624046862125426 V2.612244926393032 H8.189371110796928 C6.547048456072807,2.612244926393032 5.209677428007126,4.032397401034832 5.209677428007126,5.779400311410427 l0,4.434017539024353 H5.209677428007126 v13.935483694076538 h0.0011935484409332279 l0.0011935484409332279,0.07157771170139314 c0.07101613223552712,2.0320468950271606 1.6441129773855212,3.654897314310074 3.5776614516973497,3.654897314310074 h7.730016477704048 c-0.02208064615726495,-0.02660410523414623 -0.039983872771263126,-0.05574193477630617 -0.06146774470806145,-0.08297947108745576 C17.771774768829346,29.43678417533636 19.72919421195984,30.48321231454611 21.91935560107231,30.48321231454611 c3.9548227590322487,0 7.161290645599365,-3.403425176739693 7.161290645599365,-7.601172924041748 C29.080646246671677,19.50965233653784 27.009242927432062,16.654145041406153 24.144726669192313,15.660291681587694 zM14.758064955472946,22.88203939050436 c0,0.9571143573522565 0.1736612981557847,1.8692551082372666 0.4780161505937578,2.712985302805901 c-0.030435485243797467,-0.08551319539546967 -0.06743548691272742,-0.16722580432891845 -0.09488710105419162,-0.2533724308013916 H8.790322750806808 c-0.6373548674583462,0 -1.1565484392642975,-0.5270146560668972 -1.1917581182718275,-1.192750717997551 c0.0352096790075303,-0.6670029240846633 0.5550000250339509,-1.192750717997551 1.195935537815094,-1.192750717997551 H14.758064955472946 C14.758064955472946,22.93144701451063 14.758064955472946,22.906743202507496 14.758064955472946,22.88203939050436 M21.91935560107231,15.280866466462612 c-3.1837904661893845,0 -5.878822845816613,2.206873872280121 -6.810387403964997,5.256844508051872 c0.011935484409332286,-0.03800586462020897 0.0202903234958649,-0.07727859139442445 0.03222580790519734,-0.11528445601463368 H8.794500170350075 c-0.4201290512084963,0 -0.8229516500234636,0.07601172924041782 -1.197725860476494,0.21663342833518986 V10.21341785043478 H7.5961775356531165 l0,-4.434017539024353 c0,-0.34775366127491314 0.2691451734304428,-0.6334310770034839 0.5931935751438165,-0.6334310770034839 h13.712678037881853 v10.134897232055664 C21.90742011666298,15.280866466462612 21.913387858867644,15.280866466462612 21.91935560107231,15.280866466462612 M21.91935560107231,27.949488006532192 c-2.6365485060214997,0 -4.77419376373291,-2.2689501178264617 -4.77419376373291,-5.067448616027832 s2.1376452577114105,-5.067448616027832 4.77419376373291,-5.067448616027832 s4.77419376373291,2.2689501178264617 4.77419376373291,5.067448616027832 S24.55590410709381,27.949488006532192 21.91935560107231,27.949488006532192 z" id="svg_1" class=""/><polygon points="26.141632080078125,21.67346950620413 17.815099716186523,21.67346950620413 17.815099716186523,24.448980294167995 26.141632080078125,24.448980294167995 " id="svg_3" class=""/><polygon points="26.2232666015625,21.510204277932644 17.896732330322266,21.510204277932644 17.896732330322266,24.28571315854788 26.2232666015625,24.28571315854788 " class="" id="svg_4" transform="rotate(-91.21282958984375 22.059999465942383,22.897958755493164) "/></g></svg>