<svg xmlns="http://www.w3.org/2000/svg" width="32" height="32" style=""><rect id="backgroundrect" width="100%" height="100%" x="0" y="0" fill="none" stroke="none" class="" style=""/><g class="currentLayer" style=""><title>Layer 1</title><path fill-rule="evenodd" d="M27.506187915802002,9.459130498416329 c0,-2.3474065375328066 -1.8821547913551333,-4.2295613288879395 -4.2295613288879395,-4.2295613288879395 a4.214757864236831,4.214757864236831 0 0 0 -2.1147806644439697,7.866984071731568 v0.6344341993331911 c-0.042295613288879416,1.0996859455108643 -0.48639955282211306,2.0724850511550903 -1.3323118185997014,2.9183973169326785 c-0.8459122657775878,0.8459122657775878 -1.8187113714218142,1.2900162053108217 -2.9183973169326785,1.3323118185997014 c-1.755267951488495,0.042295613288879416 -3.129875383377075,0.33836490631103533 -4.2295613288879395,0.9516512989997866 V8.866991912372017 a4.214757864236831,4.214757864236831 0 0 0 -2.1147806644439697,-7.866984071731568 C8.219388256072998,1.0000078406404498 6.358381271362305,2.882162631995583 6.358381271362305,5.229569169528389 a4.2295613288879395,4.2295613288879395 0 0 0 2.1147806644439697,3.6374227428436283 v13.872961158752442 c-1.2477205920219423,0.7401732325553898 -2.1147806644439697,2.09363285779953 -2.1147806644439697,3.6374227428436283 c0,2.3474065375328066 1.8821547913551333,4.2295613288879395 4.2295613288879395,4.2295613288879395 c2.3474065375328066,0 4.2295613288879395,-1.8821547913551333 4.2295613288879395,-4.2295613288879395 c0,-1.120833752155304 -0.42295613288879397,-2.1147806644439697 -1.120833752155304,-2.8761017036437995 c0.19033025979995735,-0.1268868398666382 1.0150947189331057,-0.8670600724220278 1.2477205920219423,-0.9939469122886658 c0.5286951661109925,-0.23262587308883667 1.1842771720886232,-0.359512712955475 1.9878938245773317,-0.359512712955475 c2.2205196976661683,-0.1057390332221985 4.123822295665741,-0.9516512989997866 5.815646827220917,-2.643475830554962 S25.285668218135832,15.317072938926124 25.391407251358032,13.117701047904397 h-0.042295613288879416 C26.639127843379974,12.356380008704567 27.506187915802002,11.002920383460427 27.506187915802002,9.459130498416329 zM10.587942600250244,2.6918323721956257 c1.3957552385330203,0 2.5377367973327636,1.1631293654441834 2.5377367973327636,2.5377367973327636 c0,1.3746074318885806 -1.1631293654441834,2.5377367973327636 -2.5377367973327636,2.5377367973327636 C9.213335168361663,7.767305966861153 8.050205802917482,6.60417660141697 8.050205802917482,5.229569169528389 c0,-1.3746074318885806 1.1631293654441834,-2.5377367973327636 2.5377367973327636,-2.5377367973327636 zm0,26.244428045749665 c-1.3957552385330203,0 -2.5377367973327636,-1.1631293654441834 -2.5377367973327636,-2.5377367973327636 c0,-1.3746074318885806 1.1631293654441834,-2.5377367973327636 2.5377367973327636,-2.5377367973327636 c1.3746074318885806,0 2.5377367973327636,1.1631293654441834 2.5377367973327636,2.5377367973327636 c0,1.3746074318885806 -1.1631293654441834,2.5377367973327636 -2.5377367973327636,2.5377367973327636 zm12.688683986663818,-16.918245315551758 c-1.3957552385330203,0 -2.5377367973327636,-1.1631293654441834 -2.5377367973327636,-2.5377367973327636 c0,-1.3746074318885806 1.1631293654441834,-2.5377367973327636 2.5377367973327636,-2.5377367973327636 c1.3746074318885806,0 2.5377367973327636,1.1631293654441834 2.5377367973327636,2.5377367973327636 c0,1.3746074318885806 -1.1631293654441834,2.5377367973327636 -2.5377367973327636,2.5377367973327636 z" id="svg_1" class=""/></g></svg>